<svg xmlns="http://www.w3.org/2000/svg"  viewBox="0 0 50 50" width="25px" height="25px"><path d="M 14 7 C 12.343 7 11 8.343 11 10 L 11 40 C 11 41.657 12.343 43 14 43 L 36 43 C 37.657 43 39 41.657 39 40 L 39 22.121094 C 39 21.591094 38.789062 21.082031 38.414062 20.707031 L 25.292969 7.5859375 C 24.917969 7.2109375 24.408906 7 23.878906 7 L 14 7 z M 14 8 L 24 8 L 24 19 C 24 20.657 25.343 22 27 22 L 38 22 L 38 40 C 38 41.105 37.105 42 36 42 L 14 42 C 12.895 42 12 41.105 12 40 L 12 10 C 12 8.895 12.895 8 14 8 z M 25 8.7070312 L 37.292969 21 L 27 21 C 25.895 21 25 20.105 25 19 L 25 8.7070312 z"/></svg>